<?xml version="1.0" standalone="yes"?>
<svg xmlns="http://www.w3.org/2000/svg" width="600" height="350">
<path style="fill:#fffefe; stroke:none;" d="M0 0L0 203L1 203C3.75536 138.826 69.32 78.9925 134 91C139.966 79.6798 143.709 67.7287 151.029 57C170.929 27.8308 206.669 2.56412 243 1L220 0L171 0L0 0z"/>
<path style="fill:#da9e9c; stroke:none;" d="M243 0L243 1L249 1L243 0z"/>
<path style="fill:#ed2329; stroke:none;" d="M135 92C120.072 88.4362 103.687 90.1317 89 94.152C-1.21146 118.845 -25.1149 239.203 30.615 307C67.299 351.627 116.469 350 169 350L415 350L483 350C501.777 350 520.437 350.605 538 342.688C587.669 320.3 609.938 258.917 595.572 208C586.078 174.351 562.933 146.634 529 135.746C520.724 133.091 511.66 131.679 503 131.09C499.311 130.838 493.536 132.525 490.379 130.307C484.773 126.369 481.454 117.185 476.826 112C465.521 99.3332 452.466 89.2289 437 82.1782C425.242 76.8179 411.926 73.6054 399 73.0394C393.552 72.8008 381.96 75.5924 377.39 72.9329C371.574 69.5475 366.951 56.5636 362.844 51C353.584 38.4542 340.546 26.6263 327 18.8727C258.356 -20.4194 154.427 8.06757 135 92z"/>
<path style="fill:#da9e9c; stroke:none;" d="M269 0L269 1L276 1L269 0z"/>
<path style="fill:#fffefe; stroke:none;" d="M276 0L276 1C303.912 2.20166 335.408 19.3833 353.714 40.0038C359.296 46.2917 364.714 52.95 369.305 60C371.616 63.5485 373.72 69.6638 377.39 71.9715C381.559 74.5936 390.152 71.8274 395 72.0394C407.171 72.5716 419.617 75.1288 431 79.4251C446.486 85.2704 461.643 94.7036 472.831 107.004C478.513 113.251 483.649 125.529 490.529 129.972C494.359 132.446 501.625 130.907 506 131.015C514.058 131.212 522.413 133.229 530 135.861C567.16 148.752 598.164 185.491 599 226L600 226L600 0L276 0z"/>
<path style="fill:#da9e9c; stroke:none;" d="M237 1L237 2L240 2L237 1M278 1L278 2L282 2L278 1M232 2L232 3L235 3L232 2M284 2L284 3L287 3L284 2M227 3L227 4L230 4L227 3M288 3L288 4L292 4L288 3M223 4L223 5L226 5L223 4M293 4L293 5L296 5L293 4M220 5L220 6L223 6L220 5M296 5L296 6L299 6L296 5M217.667 6.33334L218.333 6.66666L217.667 6.33334M299 6L299 7L302 7L299 6M214.667 7.33334L215.333 7.66666L214.667 7.33334M302.667 7.33334L303.333 7.66666L302.667 7.33334M211 8L211 9L214 9L211 8M305.667 8.33334L306.333 8.66666L305.667 8.33334M208 9L208 10L211 10L208 9M307 9L307 10L310 10L307 9M206.667 10.3333L207.333 10.6667L206.667 10.3333M310.667 10.3333L311.333 10.6667L310.667 10.3333M204.667 11.3333L205.333 11.6667L204.667 11.3333M312.667 11.3333L313.333 11.6667L312.667 11.3333M202.667 12.3333L203.333 12.6667L202.667 12.3333M314 12L314 13L317 13L314 12M200.667 13.3333L201.333 13.6667L200.667 13.3333M317 13L318 14L317 13M198.667 14.3333L199.333 14.6667L198.667 14.3333M318.667 14.3333L319.333 14.6667L318.667 14.3333M196.667 15.3333L197.333 15.6667L196.667 15.3333M320.667 15.3333L321.333 15.6667L320.667 15.3333M195 16L196 17L195 16M322.667 16.3333L323.333 16.6667L322.667 16.3333M193 17L194 18L193 17M324.667 17.3333L325.333 17.6667L324.667 17.3333M191 18L192 19L191 18M326 18L327 19L326 18M190 19L191 20L190 19M328 19L329 20L328 19M188 20L189 21L188 20M329 20L330 21L329 20M187 21L188 22L187 21M331 21L332 22L331 21M185 22L186 23L185 22M332.667 22.3333L333.333 22.6667L332.667 22.3333M184 23L185 24L184 23M334 23L335 24L334 23M182 24L183 25L182 24M335 24L336 25L335 24M181 25L182 26L181 25M336.667 25.3333L337.333 25.6667L336.667 25.3333M178 28L181 26L178 28M338 26L339 27L338 26M339 27L340 28L339 27M177 28L178 29L177 28M340 28L341 29L340 28M176 29L177 30L176 29M248 29L248 30L281 31C271.568 26.7659 258.149 29 248 29M341.667 29.3333L342.333 29.6667L341.667 29.3333M173 32L176 30L173 32M242 30L242 31L247 31L242 30z"/>
<path style="fill:#fffefe; stroke:none;" d="M160 157C152.734 156.021 133.916 152.636 130.028 145.867C125.666 138.272 128.999 124.381 129 116C115.497 116.279 102.102 120.449 90 126.223C77.1514 132.353 65.7366 140.371 56.1705 151C3.84641 209.138 32.0599 304.187 107 325.573C136.696 334.047 170.4 330 201 330L372 330L456 330C473.914 330 492.516 331.507 510 326.845C566.527 311.772 596.561 236.998 559.471 189C546.677 172.443 527.559 161.683 507 158.439C499.648 157.279 486.547 159.828 480.213 156.802C473.213 153.459 467.312 137.09 461.829 131C446.677 114.17 424.696 102.366 402 100.17C387.414 98.7582 371.785 100.144 358 105.228C350.949 107.829 341.167 116.154 334 116.418C327.06 116.674 318.303 109.624 312 107C322.777 96.2304 335.382 85.9777 350 81C346.095 68.7463 333.986 57.8766 324 50.375C289.854 24.7237 241.014 22.6425 205 45.8642C179.078 62.5785 161.156 91.1422 158.17 122C157.02 133.882 159.073 145.267 160 157z"/>
<path style="fill:#da9e9c; stroke:none;" d="M343 30L344 31L343 30M237 31L237 32L241 32L237 31M282 31L282 32L286 32L282 31M344 31L345 32L344 31M172 32L173 33L172 32M233 32L233 33L237 33L233 32M286 32L286 33L290 33L286 32M345 32L346 33L345 32M171 33L172 34L171 33M230 33L230 34L233 34L230 33M290 33L290 34L293 34L290 33M346 33L347 34L346 33M170 34L171 35L170 34M227 34L227 35L230 35L227 34M293 34L293 35L296 35L293 34M347 34L354 40L347 34M169 35L170 36L169 35M224.667 35.3333L225.333 35.6667L224.667 35.3333M296.667 35.3333L297.333 35.6667L296.667 35.3333M168 36L169 37L168 36M222 36L223 37L222 36M299.667 36.3333L300.333 36.6667L299.667 36.3333M167 37L168 38L167 37M220 37L221 38L220 37M302 37L303 38L302 37M166 38L167 39L166 38M217.667 38.3333L218.333 38.6667L217.667 38.3333M304.667 38.3333L305.333 38.6667L304.667 38.3333M165 39L166 40L165 39M215 39L216 40L215 39M306.667 39.3333L307.333 39.6667L306.667 39.3333M164 40L165 41L164 40M213.667 40.3333L214.333 40.6667L213.667 40.3333M308.667 40.3333L309.333 40.6667L308.667 40.3333M354.333 40.6667L354.667 41.3333L354.333 40.6667M163 41L164 42L163 41M211.667 41.3333L212.333 41.6667L211.667 41.3333M310.667 41.3333L311.333 41.6667L310.667 41.3333M162 42L163 43L162 42M209.667 42.3333L210.333 42.6667L209.667 42.3333M312 42L313 43L312 42M355 42L356 43L355 42M161 43L162 44L161 43M208 43L209 44L208 43M313.667 43.3333L314.333 43.6667L313.667 43.3333M356 43L357 44L356 43M160 44L161 45L160 44M206.667 44.3333L207.333 44.6667L206.667 44.3333M315.667 44.3333L316.333 44.6667L315.667 44.3333M357 44L358 45L357 44M204.667 45.3333L205.333 45.6667L204.667 45.3333M317 45L318 46L317 45M358 45L359 46L358 45M159 46L160 47L159 46M203 46L204 47L203 46M318.667 46.3333L319.333 46.6667L318.667 46.3333M359 46L360 47L359 46M158 47L159 48L158 47M202 47L203 48L202 47M320 47L321 48L320 47M157 48L158 49L157 48M200.667 48.3333L201.333 48.6667L200.667 48.3333M321 48L322 49L321 48M156 49L155 52L156 49M199 49L200 50L199 49M322.667 49.3333L323.333 49.6667L322.667 49.3333M361 49L362 50L361 49M197.667 50.3333L198.333 50.6667L197.667 50.3333M324 50L325 51L324 50M362 50L363 51L362 50M196 51L197 52L196 51M325 51L326 52L325 51M363 51L364 52L363 51M154 52L155 53L154 52M195 52L196 53L195 52M326.667 52.3333L327.333 52.6667L326.667 52.3333M153 53L152 56L153 53M194 53L195 54L194 53M328 53L329 54L328 53M364 53L365 54L364 53M193 54L194 55L193 54M329 54L330 55L329 54M365 54L366 55L365 54M192 55L193 56L192 55M330 55L331 56L330 55M366.333 55.6667L366.667 56.3333L366.333 55.6667M151 56L150 59L151 56M331 56L332 57L331 56M189.667 57.3333L190.333 57.6667L189.667 57.3333M332 57L333 58L332 57M367 57L368 58L367 57M188 58L189 59L188 58M333 58L334 59L333 58M368.333 58.6667L368.667 59.3333L368.333 58.6667M149 59L150 60L149 59M187 59L188 60L187 59M334 59L335 60L334 59M148.333 60.6667L148.667 61.3333L148.333 60.6667M186 60L187 61L186 60M335 60L336 61L335 60M369 60L370 61L369 60M185 61L186 62L185 61M336 61L337 62L336 61M370.333 61.6667L370.667 62.3333L370.333 61.6667M147.333 62.6667L147.667 63.3333L147.333 62.6667M184 62L185 63L184 62M337 62L338 63L337 62M338 63L339 64L338 63M371 63L372 64L371 63M146.333 64.6667L146.667 65.3333L146.333 64.6667M183 64L184 65L183 64M339 64L340 65L339 64M182 65L183 66L182 65M340 65L341 66L340 65M372 65L373 66L372 65M145 66L146 67L145 66M181 66L182 67L181 66M341 66L343 69L341 66M373.333 66.6667L373.667 67.3333L373.333 66.6667M144.333 67.6667L144.667 68.3333L144.333 67.6667M180 67L181 68L180 67M179 68L180 69L179 68M374.333 68.6667L374.667 69.3333L374.333 68.6667M143.333 69.6667L143.667 70.3333L143.333 69.6667M343 69L344 70L343 69M178 70L179 71L178 70M344 70L345 71L344 70M375.333 70.6667L375.667 71.3333L375.333 70.6667M142.333 71.6667L142.667 72.3333L142.333 71.6667M177 71L176 74L177 71M345.333 71.6667L345.667 72.3333L345.333 71.6667M376 72L382 74L382 73L376 72M384 72L384 73L400 73L384 72M141.333 73.6667L141.667 74.3333L141.333 73.6667M346 73L347 74L346 73M403 73L403 74L408 74L403 73M175 74L176 75L175 74M347.333 74.6667L347.667 75.3333L347.333 74.6667M411 74L411 75L415 75L411 74M140.333 75.6667L140.667 76.3333L140.333 75.6667M174.333 75.6667L174.667 76.3333L174.333 75.6667M416 75L416 76L419 76L416 75M348 76L349 77L348 76M421.667 76.3333L422.333 76.6667L421.667 76.3333M173 77L174 78L173 77M349.333 77.6667L349.667 78.3333L349.333 77.6667M424.667 77.3333L425.333 77.6667L424.667 77.3333M139 78L140 79L139 78M172.333 78.6667L172.667 79.3333L172.333 78.6667M427.667 78.3333L428.333 78.6667L427.667 78.3333M350.333 79.6667L350.667 80.3333L350.333 79.6667M430.667 79.3333L431.333 79.6667L430.667 79.3333M138.333 80.6667L138.667 81.3333L138.333 80.6667M171.333 80.6667L171.667 81.3333L171.333 80.6667M433 80L434 81L433 80M348.667 81.3333L349.333 81.6667L348.667 81.3333M435.667 81.3333L436.333 81.6667L435.667 81.3333M137.333 82.6667L137.667 83.3333L137.333 82.6667M170 82L171 83L170 82M345.667 82.3333L346.333 82.6667L345.667 82.3333M437.667 82.3333L438.333 82.6667L437.667 82.3333M169.333 83.6667L169.667 84.3333L169.333 83.6667M343.667 83.3333L344.333 83.6667L343.667 83.3333M440 83L441 84L440 83M341.667 84.3333L342.333 84.6667L341.667 84.3333M441.667 84.3333L442.333 84.6667L441.667 84.3333M136.333 85.6667L136.667 86.3333L136.333 85.6667M168.333 85.6667L168.667 86.3333L168.333 85.6667M339.667 85.3333L340.333 85.6667L339.667 85.3333M443.667 85.3333L444.333 85.6667L443.667 85.3333M338 86L339 87L338 86M445.667 86.3333L446.333 86.6667L445.667 86.3333M336.667 87.3333L337.333 87.6667L336.667 87.3333M447 87L448 88L447 87M135.333 88.6667L135.667 89.3333L135.333 88.6667M167 88L168 89L167 88M334.667 88.3333L335.333 88.6667L334.667 88.3333M449 88L450 89L449 88M112 89L112 90L122 90L112 89M166.333 89.6667L166.667 90.3333L166.333 89.6667M333 89L334 90L333 89M450.667 89.3333L451.333 89.6667L450.667 89.3333M103 90L103 91L112 91L103 90M125 90L125 91L132 91L125 90M134 90L133 92L135 92L134 90M331.667 90.3333L332.333 90.6667L331.667 90.3333M452.667 90.3333L453.333 90.6667L452.667 90.3333M97 91L97 92L102 92L97 91M330 91L331 92L330 91M454 91L455 92L454 91M93 92L93 93L96 93L93 92M165.333 92.6667L165.667 93.3333L165.333 92.6667M328.667 92.3333L329.333 92.6667L328.667 92.3333M455 92L456 93L455 92M89 93L89 94L92 94L89 93M327 93L328 94L327 93M456.667 93.3333L457.333 93.6667L456.667 93.3333M86.6667 94.3333L87.3333 94.6667L86.6667 94.3333M164.333 94.6667L164.667 95.3333L164.333 94.6667M325.667 94.3333L326.333 94.6667L325.667 94.3333M458 94L459 95L458 94M83.6667 95.3333L84.3333 95.6667L83.6667 95.3333M324 95L325 96L324 95M459 95L460 96L459 95M80.6667 96.3333L81.3333 96.6667L80.6667 96.3333M323 96L324 97L323 96M460.667 96.3333L461.333 96.6667L460.667 96.3333M78 97L79 98L78 97M163.333 97.6667L163.667 98.3333L163.333 97.6667M322 97L323 98L322 97M462 97L463 98L462 97M75.6667 98.3333L76.3333 98.6667L75.6667 98.3333M320.667 98.3333L321.333 98.6667L320.667 98.3333M463 98L464 99L463 98M73 99L74 100L73 99M319 99L320 100L319 99M380 99L380 100L401 100L380 99M464 99L466 101L466 99L464 99M70.6667 100.333L71.3333 100.667L70.6667 100.333M162.333 100.667L162.667 101.333L162.333 100.667M318 100L319 101L318 100M372 100L372 101L378 101L372 100M404 100L404 101L408 101L404 100M69 101L70 102L69 101M317 101L318 102L317 101M368 101L368 102L372 102L368 101M410 101L410 102L413 102L410 101M466 101L475 110L466 101M65 104L68 102L65 104M316 102L317 103L316 102M364 102L364 103L368 103L364 102M414.667 102.333L415.333 102.667L414.667 102.333M161.333 103.667L161.667 104.333L161.333 103.667M315 103L316 104L315 103M361 103L361 104L364 104L361 103M418.667 103.333L419.333 103.667L418.667 103.333M63 104L64 105L63 104M314 104L315 105L314 104M358.667 104.333L359.333 104.667L358.667 104.333M421.667 104.333L422.333 104.667L421.667 104.333M61.6667 105.333L62.3333 105.667L61.6667 105.333M313 105L314 106L313 105M355 105L355 106L358 106L355 105M424.667 105.333L425.333 105.667L424.667 105.333M60 106L61 107L60 106M160 106L160 109L161 109L160 106M312 106L313 107L312 106M353.667 106.333L354.333 106.667L353.667 106.333M426.667 106.333L427.333 106.667L426.667 106.333M58.6667 107.333L59.3333 107.667L58.6667 107.333M313.667 107.333L314.333 107.667L313.667 107.333M350 107L350 108L353 108L350 107M428 107L428 108L433 109L433 108L428 107M55 110L58 108L55 110M315.667 108.333L316.333 108.667L315.667 108.333M348.667 108.333L349.333 108.667L348.667 108.333M317.667 109.333L318.333 109.667L317.667 109.333M346.667 109.333L347.333 109.667L346.667 109.333M433.667 109.333L434.333 109.667L433.667 109.333M54 110L55 111L54 110M319.667 110.333L320.333 110.667L319.667 110.333M345 110L346 111L345 110M435 110L436 111L435 110M475 110L476 111L475 110M52.6667 111.333L53.3333 111.667L52.6667 111.333M159 111L159 114L160 114L159 111M321.667 111.333L322.333 111.667L321.667 111.333M343 111L344 112L343 111M437 111L438 112L437 111M476 111L477 112L476 111M51 112L52 113L51 112M323.667 112.333L324.333 112.667L323.667 112.333M341.667 112.333L342.333 112.667L341.667 112.333M439 112L440 113L439 112M477 112L478 113L477 112M50 113L51 114L50 113M325.667 113.333L326.333 113.667L325.667 113.333M340 113L341 114L340 113M441 113L442 114L441 113M478 113L479 114L478 113M48.6667 114.333L49.3333 114.667L48.6667 114.333M328 114L329 115L328 114M338.667 114.333L339.333 114.667L338.667 114.333M442 114L443 115L442 114M479.333 114.667L479.667 115.333L479.333 114.667M47 115L48 116L47 115M125 115L125 116L129 116L125 115M329.667 115.333L330.333 115.667L329.667 115.333M337 115L338 116L337 115M444 115L445 116L444 115M46 116L47 117L46 116M118 116L118 117L123 117L118 116M129 116L129 122L130 122L129 116M158 116L158 120L159 120L158 116M332 116L333 117L332 116M335 116L336 117L335 116M445 116L446 117L445 116M480 116L481 117L480 116M45 117L46 118L45 117M113 117L113 118L116 118L113 117M333.667 117.333L334.333 117.667L333.667 117.333M446 117L447 118L446 117M481 117L482 118L481 117M44 118L45 119L44 118M109 118L109 119L112 119L109 118M448 118L449 119L448 118M482.333 118.667L482.667 119.333L482.333 118.667M43 119L44 120L43 119M105 119L105 120L108 120L105 119M449 119L450 120L449 119M40 122L43 120L40 122M102.667 120.333L103.333 120.667L102.667 120.333M450 120L453 122L450 120M483 120L484 121L483 120M99 121L99 122L102 122L99 121M484.333 121.667L484.667 122.333L484.333 121.667M96 122L96 123L99 123L96 122M453 122L454 123L453 122M35 128L40 123L35 128M94.6667 123.333L95.3333 123.667L94.6667 123.333M157 123L157 142L158 142L157 123M454 123L455 124L454 123M485 123L486 124L485 123M92.6667 124.333L93.3333 124.667L92.6667 124.333M455 124L456 125L455 124M486.333 124.667L486.667 125.333L486.333 124.667M90.6667 125.333L91.3333 125.667L90.6667 125.333M456 125L457 126L456 125M88.6667 126.333L89.3333 126.667L88.6667 126.333M128 126L128 134L129 134L128 126M457 126L458 127L457 126M487 126L488 127L487 126M86.6667 127.333L87.3333 127.667L86.6667 127.333M458 127L459 128L458 127M34 128L35 129L34 128M84 128L85 129L84 128M459 128L460 129L459 128M488 128L489 129L488 128M33 129L34 130L33 129M82.6667 129.333L83.3333 129.667L82.6667 129.333M460 129L461 130L460 129M489.333 129.667L489.667 130.333L489.333 129.667M32 130L33 131L32 130M80.6667 130.333L81.3333 130.667L80.6667 130.333M461 130L462 131L461 130M31 131L32 132L31 131M79 131L80 132L79 131M462 131L463 132L462 131M490 131L490 132L494 132L490 131M506 131L506 132L512 132L506 131M30 132L28 136L30 132M77.6667 132.333L78.3333 132.667L77.6667 132.333M463 132L464 133L463 132M514 132L514 133L518 133L514 132M76 133L77 134L76 133M464 133L466 136L464 133M520 133L520 134L523 134L520 133M74.6667 134.333L75.3333 134.667L74.6667 134.333M524.667 134.333L525.333 134.667L524.667 134.333M73 135L74 136L73 135M528.667 135.333L529.333 135.667L528.667 135.333M27 136L28 137L27 136M466 136L467 137L466 136M531 136L532 137L531 136M26 137L27 138L26 137M70 137L71 138L70 137M129 137L129 147L130 147L129 137M467 137L468 138L467 137M533.667 137.333L534.333 137.667L533.667 137.333M25.3333 138.667L25.6667 139.333L25.3333 138.667M69 138L70 139L69 138M468.333 138.667L468.667 139.333L468.333 138.667M536.667 138.333L537.333 138.667L536.667 138.333M68 139L69 140L68 139M538.667 139.333L539.333 139.667L538.667 139.333M24 140L25 141L24 140M67 140L68 141L67 140M469 140L470 141L469 140M540.667 140.333L541.333 140.667L540.667 140.333M23.3333 141.667L23.6667 142.333L23.3333 141.667M65 141L66 142L65 141M470.333 141.667L470.667 142.333L470.333 141.667M542.667 141.333L543.333 141.667L542.667 141.333M64 142L65 143L64 142M544.667 142.333L545.333 142.667L544.667 142.333M22 143L23 144L22 143M63 143L64 144L63 143M471 143L472 144L471 143M546.667 143.333L547.333 143.667L546.667 143.333M21.3333 144.667L21.6667 145.333L21.3333 144.667M62 144L63 145L62 144M472.333 144.667L472.667 145.333L472.333 144.667M548.667 144.333L549.333 144.667L548.667 144.333M61 145L62 146L61 145M550 145L553 147L550 145M20 146L21 147L20 146M60 146L61 147L60 146M158 146L158 150L159 150L158 146M473.333 146.667L473.667 147.333L473.333 146.667M59 147L60 148L59 147M130 147L131 148L130 147M553 147L554 148L553 147M19 148L20 149L19 148M58 148L59 149L58 148M131 148L131 149L134 149L131 148M474 148L475 149L474 148M554.667 148.333L555.333 148.667L554.667 148.333M18.3333 149.667L18.6667 150.333L18.3333 149.667M57 149L58 150L57 149M134.667 149.333L135.333 149.667L134.667 149.333M556 149L557 150L556 149M56 150L57 151L56 150M137.667 150.333L138.333 150.667L137.667 150.333M475 150L476 151L475 150M557.667 150.333L558.333 150.667L557.667 150.333M17.3333 151.667L17.6667 152.333L17.3333 151.667M55 151L56 152L55 151M140.667 151.333L141.333 151.667L140.667 151.333M559 151L560 152L559 151M54 152L55 153L54 152M143.667 152.333L144.333 152.667L143.667 152.333M159 152L159 155L160 155L159 152M476 152L477 153L476 152M560 152L561 153L560 152M16 153L17 154L16 153M53.3333 153.667L53.6667 154.333L53.3333 153.667M146.667 153.333L147.333 153.667L146.667 153.333M561 153L562 154L561 153M149.667 154.333L150.333 154.667L149.667 154.333M477 154L478 155L477 154M562.667 154.333L563.333 154.667L562.667 154.333M15 155L16 156L15 155M52 155L53 156L52 155M152 155L152 156L155 156L152 155M564 155L565 156L564 155M14.3333 156.667L14.6667 157.333L14.3333 156.667M51 156L52 157L51 156M156.667 156.333L157.333 156.667L156.667 156.333M478 156L479 157L478 156M565 156L566 157L565 156M50 157L51 158L50 157M479 157L479 158L483 158L479 157M498 157L498 158L505 158L498 157M566 157L567 158L566 157M13.3333 158.667L13.6667 159.333L13.3333 158.667M49.3333 158.667L49.6667 159.333L49.3333 158.667M507 158L507 159L510 159L507 158M567 158L568 159L567 158M512 159L512 160L515 160L512 159M568 159L569 160L568 159M12.3333 160.667L12.6667 161.333L12.3333 160.667M48 160L49 161L48 160M516.667 160.333L517.333 160.667L516.667 160.333M569 160L570 161L569 160M47.3333 161.667L47.6667 162.333L47.3333 161.667M520.667 161.333L521.333 161.667L520.667 161.333M570 161L571 162L570 161M522 162L522 163L525 163L522 162M571 162L572 163L571 162M11.3333 163.667L11.6667 164.333L11.3333 163.667M46 163L47 164L46 163M525.667 163.333L526.333 163.667L525.667 163.333M572 163L573 164L572 163M45.3333 164.667L45.6667 165.333L45.3333 164.667M527.667 164.333L528.333 164.667L527.667 164.333M573 164L575 167L573 164M10.3333 165.667L10.6667 166.333L10.3333 165.667M530 165L531 166L530 165M44 166L45 167L44 166M532.667 166.333L533.333 166.667L532.667 166.333M9 167L9 170L10 170L9 167M534 167L535 168L534 167M575 167L576 168L575 167M43 168L44 169L43 168M536 168L537 169L536 168M576 168L577 169L576 168M42 169L43 170L42 169M537.667 169.333L538.333 169.667L537.667 169.333M577 169L578 170L577 169M8.33333 170.667L8.66667 171.333L8.33333 170.667M539 170L540 171L539 170M41 171L42 172L41 171M540.667 171.333L541.333 171.667L540.667 171.333M578 171L579 172L578 171M542 172L543 173L542 172M579 172L580 173L579 172M7.33333 173.667L7.66667 174.333L7.33333 173.667M40 173L41 174L40 173M543 173L544 174L543 173M580.333 173.667L580.667 174.333L580.333 173.667M544.667 174.333L545.333 174.667L544.667 174.333M39 175L40 176L39 175M546 175L547 176L546 175M581 175L582 176L581 175M6.33333 176.667L6.66667 177.333L6.33333 176.667M547 176L548 177L547 176M582.333 176.667L582.667 177.333L582.333 176.667M38 177L39 178L38 177M548 177L549 178L548 177M549 178L550 179L549 178M583 178L584 179L583 178M5 179L5 182L6 182L5 179M37.3333 179.667L37.6667 180.333L37.3333 179.667M550.667 179.333L551.333 179.667L550.667 179.333M552 180L555 184L552 180M584 180L585 181L584 180M36.3333 181.667L36.6667 182.333L36.3333 181.667M585.333 181.667L585.667 182.333L585.333 181.667M4 182L4 185L5 185L4 182M162 192L163 192C173.777 178.158 211.161 176.807 215 198C217.564 190.753 209.522 183.811 203 182.39C190.427 179.651 168.641 179.306 162 192M219 182L219 208C219.001 210.584 218.24 215.147 220.603 216.968C223.97 219.563 226.659 216.081 226.941 212.981C227.657 205.114 227 196.9 227 189C232.624 189 248.859 186.23 251.914 192.228C256.498 201.229 233.976 199 230 199C233.454 209.742 248.514 217.999 259 218L251 207L251 206L247 206L258 217C246.657 216.96 238.697 207.538 231 200L242 200C243.979 199.999 246.015 200.118 247.985 199.891C252.987 199.314 256.226 193.498 251.682 189.742C248.293 186.941 229.936 185.932 227.028 189.603C223.082 194.586 226 210.738 226 217L220 217L220 183C231.919 183 250.559 179.064 259 189C258.703 184.345 254.299 182.313 250 182.044C239.747 181.402 229.274 182 219 182M280 187L281 187L285 183L280 187z"/>
<path style="fill:#ed2329; stroke:none;" d="M262 217C274.684 216.85 279.647 198.627 287 190L295 205L279 205C282.294 214.376 290.792 208.89 297.961 211.603C302.762 213.419 304.401 216.818 310 217L293.652 189.004L285.093 182.971L277.692 191L262 217z"/>
<path style="fill:#da9e9c; stroke:none;" d="M287 182L287 183L291 185L287 182M308 198L309 198C312.469 178.848 334.617 183 349 183C342.67 190.187 332.856 188 324 188L324 189C332.969 189 346.625 192.445 350 182C335.235 182 310.137 177.268 308 198M353 182L353 207C353.001 210.15 352.263 214.934 355.318 216.972C360.381 220.35 380.069 219.275 385.907 217.682C389.698 216.647 392.214 212.729 389 210C388.61 219.036 361.199 220.735 355.603 215.258C350.561 210.322 354 189.857 354 183L360 183L360 211C363.527 202.596 364.135 182.132 353 182M400 183L400 184L430 183C425.226 190.637 413.985 188 406 188L406 189C415.063 189 428.017 192.159 432 182L400 183M435.742 183.032C431.917 186.06 436.455 192.508 440.552 189.214C444.607 185.953 439.642 179.946 435.742 183.032M35 183L35 186L36 186L35 183z"/>
<path style="fill:#ed2329; stroke:none;" d="M173 183.558C160.036 186.96 156.922 204.997 167.185 213.2C174.914 219.377 194.839 218.808 204 216.057C217.154 212.106 219.008 194.611 208.957 186.394C201.845 180.581 181.65 181.288 173 183.558M220 183L220 217L226 217C226 210.337 223.27 195.95 227.028 190.318C229.973 185.904 246.977 186.89 250.851 189.742C256.164 193.654 252.362 199.283 246.996 199.891C245.022 200.115 242.983 199.999 241 200L231 200C237.406 208.906 246.823 216.991 258 217L247 206C257.503 205.454 266.842 190.995 254.906 184.457C246.364 179.778 229.585 183 220 183M349 211C342.033 212.109 327.302 213.017 321.043 209.568C314.28 205.84 313.127 196.525 319.109 191.558C327.97 184.199 342.651 193.155 349 183L328 183C324.151 183.006 320.415 182.951 317.004 185.009C306.471 191.364 305.506 207.304 316.015 214.272C321.212 217.718 328.079 217 334 217C340.249 217 346.914 218.19 349 211M354 183C354 190.094 350.54 209.711 355.028 215.258C357.095 217.813 362.127 216.999 365 217C372.677 217.003 387.322 220.231 390 211C384.909 211.543 364.058 213.664 361.028 209.527C357.217 204.323 360 189.343 360 183L354 183M431 211C419.505 211.855 403.541 214.189 397 203C406.962 203 423.217 206.679 429 197L397 197C404.464 182.663 425.054 194.805 430 183L409 183.001C394.678 183.071 383.703 198.46 394.279 210.956C399.998 217.714 407.985 217 416 217C422.447 217 428.507 218.096 431 211M437.667 183.333L438.333 183.667L437.667 183.333z"/>
<path style="fill:#da9e9c; stroke:none;" d="M586.333 183.667L586.667 184.333L586.333 183.667M398 184L399 185L398 184M555 184L556 185L555 184M291 185L292 186L291 185M395 187L398 185L395 187z"/>
<path style="fill:#ed2329; stroke:none;" d="M438.333 185.667L438.667 186.333L438.333 185.667z"/>
<path style="fill:#fffefe; stroke:none;" d="M440.333 185.667L440.667 186.333L440.333 185.667z"/>
<path style="fill:#da9e9c; stroke:none;" d="M556 185L557 186L556 185M587.333 185.667L587.667 186.333L587.333 185.667M3 186L3 189L4 189L3 186M34 186L34 189L35 189L34 186M292.333 186.667L292.667 187.333L292.333 186.667M557 186L558 187L557 186M394 187L393 190L394 187M558 187L559 188L558 187M588.333 187.667L588.667 188.333L588.333 187.667M178 211L178 210C168.244 208.015 164.993 196.53 174.04 190.858C180.596 186.748 192.533 189 200 189C193.322 186.198 176.699 186.287 171.109 191.279C163.126 198.406 168.151 209.903 178 211M279 188L280 189L279 188M293 188L294 189L293 188M559 188L560 189L559 188M33.3333 189.667L33.6667 190.333L33.3333 189.667z"/>
<path style="fill:#fffefe; stroke:none;" d="M176.004 189.573C167.722 191.978 165.466 202.891 172.329 208.272C177.962 212.688 193.422 212.414 200 210.347C208.722 207.607 211.98 196.573 203.815 191.009C198.137 187.14 182.463 187.697 176.004 189.573z"/>
<path style="fill:#da9e9c; stroke:none;" d="M201.667 189.333L202.333 189.667L201.667 189.333M278 189L279 190L278 189M294.333 189.667L294.667 190.333L294.333 189.667M321.667 189.333L322.333 189.667L321.667 189.333M401 190L401 191L405 190L401 190M589.333 189.667L589.667 190.333L589.333 189.667M203.667 190.333L204.333 190.667L203.667 190.333M260 190L260 198L261 198L260 190M277.333 190.667L277.667 191.333L277.333 190.667M286 190C282.205 194.938 277.302 200.485 278 207L295 205L286 190M320 190L321 191L320 190M392 190L393 191L392 190M560 190L561 191L560 190M2 191L2 194L3 194L2 191M205 191L206 192L205 191z"/>
<path style="fill:#fffefe; stroke:none;" d="M286 191L278 204L294 204L286 191z"/>
<path style="fill:#da9e9c; stroke:none;" d="M295 191L296 192L295 191M318 191L319 192L318 191M400 191L401 192L400 191M561 191L562 192L561 191M590 191L590 194L591 194L590 191M32 192L32 195L33 195L32 192M206 192L208 195L206 192M276 192L277 193L276 192M317 192L316 195L317 192M391 192L392 193L391 192M399 192L400 193L399 192M161.333 193.667L161.667 194.333L161.333 193.667M296 193L297 194L296 193M398.333 193.667L398.667 194.333L398.333 193.667M562 193L563 194L562 193M275 194L276 195L275 194M297 194L298 195L297 194M390 194L390 197L391 197L390 194M563.333 194.667L563.667 195.333L563.333 194.667M591.333 194.667L591.667 195.333L591.333 194.667M208.333 195.667L208.667 196.333L208.333 195.667M274.333 195.667L274.667 196.333L274.333 195.667M315 195L315 204L316 204L315 195M397 195C401.694 200.372 421.937 197 429 197L429 196L397 195M31 196L31 199L32 199L31 196M160 196L160 203L161 203L160 196M298 196L299 197L298 196M564 196L565 197L564 196M592 196L592 199L593 199L592 196M1 197L1 200L2 200L1 197M273 197L274 198L273 197M299.333 197.667L299.667 198.333L299.333 197.667M429 197L430 198L429 197M272.333 198.667L272.667 199.333L272.333 198.667M389 198L389 202L390 202L389 198M428 198L427 201L428 198M565 198L566 199L565 198M209 199L210 200L209 199M259.333 199.667L259.667 200.333L259.333 199.667M300 199L301 200L300 199M566.333 199.667L566.667 200.333L566.333 199.667M593 199L593 202L594 202L593 199M30 200L30 205L31 205L30 200M271 200L270 203L271 200M301.333 200.667L301.667 201.333L301.333 200.667M258 201L259 202L258 201M426 201L425 203L427 203L426 201M567.333 201.667L567.667 202.333L567.333 201.667M208 202L208 205L209 205L208 202M215 202L215 206L216 206L215 202M257 202L258 203L257 202M302 202L303 203L302 202M308 202L309 208L310 208L308 202M390 202L390 206L391 206L390 202M594 202L594 205L595 205L594 202M0 203L0 210L1 210L0 203M256 203L257 204L256 203M269 203L270 204L269 203M303.333 203.667L303.667 204.333L303.333 203.667M397 205L425 204C419.863 201.845 400.751 200.708 397 205M568.333 203.667L568.667 204.333L568.333 203.667M161 204L161 207L162 207L161 204M254.667 204.333L255.333 204.667L254.667 204.333M268.333 204.667L268.667 205.333L268.333 204.667M316.333 204.667L316.667 205.333L316.333 204.667M29 205L29 212L30 212L29 205M207 205L204 209L207 205M252.667 205.333L253.333 205.667L252.667 205.333M276 205L277 206L276 205M304 205L306 208L304 205M398 205L399 206L398 205M569 205L569 208L570 208L569 205M595 205L595 208L596 208L595 205M214 206L213 210L214 210L214 206M267 206L266 209L267 206M275.333 206.667L275.667 207.333L275.333 206.667M317 206L320 209L317 206M391.333 206.667L391.667 207.333L391.333 206.667M399.333 206.667L399.667 207.333L399.333 206.667M162.333 207.667L162.667 208.333L162.333 207.667M279 207L280 208L279 207M274.333 208.667L274.667 209.333L274.333 208.667M306.333 208.667L306.667 209.333L306.333 208.667M310.333 208.667L310.667 209.333L310.333 208.667M400 208L403 210L400 208M570 208L570 211L571 211L570 208M163 209L164 210L163 209M202.667 209.333L203.333 209.667L202.667 209.333M265.333 209.667L265.667 210.333L265.333 209.667M280 209L281 210L280 209M320.667 209.333L321.333 209.667L320.667 209.333M392 209L393 210L392 209M596 209L596 212L597 212L596 209M164.333 210.667L164.667 211.333L164.333 210.667M200.667 210.333L201.333 210.667L200.667 210.333M212 210L213 211L212 210M273 210L274 211L273 210M281 210C284.514 214.022 294.909 212 300 212L300 211L281 210M307.333 210.667L307.667 211.333L307.333 210.667M311 210L312 211L311 210M322 210L322 211L325 211L322 210M348 210L349 211L348 210M393 210L394 211L393 210M404 210L404 211L407 211L404 210M192 211L192 212L195 212L192 211M211 211L212 212L211 211M264 211L265 212L264 211M272.333 211.667L272.667 212.333L272.333 211.667M312 211L313 212L312 211M325.667 211.333L326.333 211.667L325.667 211.333M344 211L344 212L348 212L344 211M349 211L349 214L350 214L349 211M362 211L362 212L365 212L362 211M385 211L385 212L388 212L385 211M394 211L394 213L396 213L394 211M407 211L408 212L407 211M424 211L425 212L424 211M428 211L429 212L428 211M431.333 211.667L431.667 212.333L431.333 211.667M571.333 211.667L571.667 212.333L571.333 211.667M28 212L28 232L29 232L28 212M165 212L166 213L165 212M210 212L211 213L210 212M263.333 212.667L263.667 213.333L263.333 212.667M300 212L301 213L300 212M308 212L309 213L308 212M313 212L314 213L313 212M166.667 213.333L167.333 213.667L166.667 213.333M209 213L210 214L209 213M271 213L272 214L271 213M301.333 213.667L301.667 214.333L301.333 213.667M309 213L310 214L309 213M314 213L315 214L314 213M396 213L397 214L396 213M430.333 213.667L430.667 214.333L430.333 213.667M597 213L597 217L598 217L597 213M168 214L169 215L168 214M208 214L209 215L208 214M262.333 214.667L262.667 215.333L262.333 214.667M270.333 214.667L270.667 215.333L270.333 214.667M310 214C308.088 216.921 306.304 216.69 303 216C305.411 218.758 308.722 217.967 312 217L310 214M315 214L316 215L315 214M348 214L349 215L348 214M397 214L398 215L397 214M572 214L572 217L573 217L572 214M169.667 215.333L170.333 215.667L169.667 215.333M206 215L207 216L206 215M302 215L303 216L302 215M317 215L318 216L317 215M347 215L323 217L323 218C327.014 218 347.81 219.916 347 215M399 215L400 216L399 215M429 215L430 216L429 215M172.667 216.333L173.333 216.667L172.667 216.333M202 216L202 217L205 217L202 216M261 216L269 218L269 217L261 216M269 216L270 217L269 216M319 216L319 217L322 217L319 216M401.667 216.333L402.333 216.667L401.667 216.333M428 216L404 217L404 218L428 216M175 217L175 218L202 218L175 217M573 217L573 221L574 221L573 217M598 219L598 224L599 224L598 219M574 222L574 226L575 226L574 222M599 226L599 234L600 234L599 226M575 228L575 252L576 252L575 228M0 230L0 237L1 237L0 230M29 234L29 240L30 240L29 234M160 238L164 238L164 237L161 235L433 235C427.293 232.605 419.154 234 413 234L371 234L223 234L176 234C170.749 234 161.999 231.976 160 238z"/>
<path style="fill:#0e0e0e; stroke:none;" d="M161 235L161 237L432 237L432 235L161 235z"/>
<path style="fill:#636363; stroke:none;" d="M432.333 235.667L432.667 236.333L432.333 235.667z"/>
<path style="fill:#fffefe; stroke:none;" d="M0 237L0 350L105 350L105 349C62.4058 348.121 25.415 309.597 9.87191 273C4.99672 261.521 4.94627 248.018 0 237z"/>
<path style="fill:#636363; stroke:none;" d="M164 237L165 238L164 237z"/>
<path style="fill:#da9e9c; stroke:none;" d="M165.667 237.333L166.333 237.667L165.667 237.333z"/>
<path style="fill:#636363; stroke:none;" d="M167 237L168 238L167 237z"/>
<path style="fill:#da9e9c; stroke:none;" d="M168 237L168 238L433 238L409 237L355 237L168 237M1 240L1 243L2 243L1 240M30 241L30 245L31 245L30 241M2 246L2 249L3 249L2 246M31 246L31 250L32 250L31 246M599 246L599 254L600 254L599 246M3 250L3 254L4 254L3 250M32 250L32 253L33 253L32 250M33 253L33 256L34 256L33 253M574 253L574 258L575 258L574 253z"/>
<path style="fill:#fffefe; stroke:none;" d="M599 254C598.647 296.69 559.682 345.524 516 349L516 350L600 350L600 283L599 254z"/>
<path style="fill:#da9e9c; stroke:none;" d="M4 255L4 258L5 258L4 255M34.3333 257.667L34.6667 258.333L34.3333 257.667M245 257L246 258L245 257z"/>
<path style="fill:#636363; stroke:none;" d="M246 257L246 258L252 258L246 257z"/>
<path style="fill:#da9e9c; stroke:none;" d="M252 257L253 258L252 257M263 257L263 258L269 260C270.356 256.402 265.535 257.01 263 257M288 257L289 258L288 257z"/>
<path style="fill:#636363; stroke:none;" d="M289 257L289 258L295 258L289 257z"/>
<path style="fill:#da9e9c; stroke:none;" d="M295.667 257.333L296.333 257.667L295.667 257.333M308 257L308 258L313 258L308 257z"/>
<path style="fill:#636363; stroke:none;" d="M313 257L314 273L315 273L313 257z"/>
<path style="fill:#da9e9c; stroke:none;" d="M314 257L315 258L314 257M321 273L322 273L322 258L327 258C318.84 254.9 321 268.298 321 273M333.667 257.333L334.333 257.667L333.667 257.333z"/>
<path style="fill:#636363; stroke:none;" d="M335 257L336 258L335 257z"/>
<path style="fill:#da9e9c; stroke:none;" d="M336 257L336 258L340 258L336 257z"/>
<path style="fill:#636363; stroke:none;" d="M340 257L341 258L340 257z"/>
<path style="fill:#da9e9c; stroke:none;" d="M341 257L341 258L346 258L341 257M598 257L598 262L599 262L598 257M5 258L5 261L6 261L5 258M243 258L244 259L243 258z"/>
<path style="fill:#636363; stroke:none;" d="M244 258L245 259L244 258z"/>
<path style="fill:#0e0e0e; stroke:none;" d="M257 272C254.466 272.679 250.759 275.488 248.148 274.659C242.157 272.756 245.028 256.98 253 265L257 264C252.818 252.816 237.977 259.055 239.204 270C240.336 280.101 254.773 282.527 257 272z"/>
<path style="fill:#636363; stroke:none;" d="M253 258L255 260L253 258z"/>
<path style="fill:#da9e9c; stroke:none;" d="M254 258L255 259L254 258z"/>
<path style="fill:#636363; stroke:none;" d="M263 258L264 259L263 258z"/>
<path style="fill:#0e0e0e; stroke:none;" d="M278 279L278 275L269 275L269 258C262.153 258.534 259.972 272.276 264.028 277.397C266.473 280.484 274.486 279 278 279z"/>
<path style="fill:#da9e9c; stroke:none;" d="M286 258L287 259L286 258z"/>
<path style="fill:#636363; stroke:none;" d="M287 258L288 259L287 258z"/>
<path style="fill:#0e0e0e; stroke:none;" d="M288.044 258.742C276.058 263.597 284.09 283.744 296.895 277.991C308.005 272.999 300.137 253.844 288.044 258.742z"/>
<path style="fill:#636363; stroke:none;" d="M296 258L296 259L301 262L296 258z"/>
<path style="fill:#da9e9c; stroke:none;" d="M298 258L299 259L298 258z"/>
<path style="fill:#636363; stroke:none;" d="M308 258L308 274L309 274L308 258z"/>
<path style="fill:#0e0e0e; stroke:none;" d="M309 258C309 263.064 307.447 271.303 310.179 275.772C312.91 280.238 322.09 280.238 324.821 275.772C327.553 271.303 326 263.064 326 258L322 258C322 261.566 323.904 274.752 318.05 274.654C312.164 274.557 314 261.634 314 258L309 258z"/>
<path style="fill:#636363; stroke:none;" d="M326 258L326 274L327 274L326 258M333 258C333 268.766 329.438 279.99 343 280L343 279L334 279L333 258z"/>
<path style="fill:#0e0e0e; stroke:none;" d="M334 258L334 279C338.51 279 343.764 279.617 347.895 277.427C354.243 274.062 354.484 264.122 348.671 260.09C344.569 257.244 338.719 258 334 258z"/>
<path style="fill:#636363; stroke:none;" d="M345.667 258.333L346.333 258.667L345.667 258.333z"/>
<path style="fill:#da9e9c; stroke:none;" d="M347 258L347 259L350 260L347 258M573 258L573 262L574 262L573 258M241 259L242 260L241 259z"/>
<path style="fill:#636363; stroke:none;" d="M242 259L243 260L242 259z"/>
<path style="fill:#da9e9c; stroke:none;" d="M255 259L256 260L255 259M284 259L285 260L284 259z"/>
<path style="fill:#636363; stroke:none;" d="M285 259L286 260L285 259z"/>
<path style="fill:#da9e9c; stroke:none;" d="M299 259L300 260L299 259z"/>
<path style="fill:#636363; stroke:none;" d="M348 259L349 260L348 259z"/>
<path style="fill:#da9e9c; stroke:none;" d="M35.3333 260.667L35.6667 261.333L35.3333 260.667z"/>
<path style="fill:#636363; stroke:none;" d="M241 260L242 261L241 260z"/>
<path style="fill:#da9e9c; stroke:none;" d="M256 260L257 261L256 260z"/>
<path style="fill:#636363; stroke:none;" d="M269 260L270 261L269 260M284 260L285 261L284 260z"/>
<path style="fill:#da9e9c; stroke:none;" d="M300 260L301 261L300 260M350 260L353 263L350 260M6 261L6 264L7 264L6 261z"/>
<path style="fill:#636363; stroke:none;" d="M240 261L241 262L240 261M247 261L247 262L250 262L247 261M256 261L257 262L256 261z"/>
<path style="fill:#da9e9c; stroke:none;" d="M269 261L270 262L269 261M283 261L282 264L283 264L283 261z"/>
<path style="fill:#636363; stroke:none;" d="M289 262L289 263L294 262L289 262M343 276L343 275L340 275L340 262L346 266C346.054 263.551 343.52 260.154 340.603 262.086C336.318 264.924 338.898 274.639 343 276M350 261L351 262L350 261z"/>
<path style="fill:#da9e9c; stroke:none;" d="M36.3333 262.667L36.6667 263.333L36.3333 262.667M239 262L240 263L239 262z"/>
<path style="fill:#636363; stroke:none;" d="M246 262L245 265L246 265L246 262z"/>
<path style="fill:#da9e9c; stroke:none;" d="M250 262L251 263L250 262z"/>
<path style="fill:#636363; stroke:none;" d="M251 262L253 265L251 262z"/>
<path style="fill:#da9e9c; stroke:none;" d="M257 262L258 263L257 262z"/>
<path style="fill:#636363; stroke:none;" d="M269 262L270 263L269 262M283 262L284 263L283 262z"/>
<path style="fill:#da9e9c; stroke:none;" d="M290 262L289 264L290 262z"/>
<path style="fill:#fffefe; stroke:none;" d="M291.259 263.176C287.452 265.152 288.987 276.342 293.43 273.824C296.616 272.018 295.735 260.853 291.259 263.176z"/>
<path style="fill:#da9e9c; stroke:none;" d="M294 262L295 263L294 262M301 262L302 263L301 262z"/>
<path style="fill:#fffefe; stroke:none;" d="M340 262L340 275C347.741 273.348 347.741 263.652 340 262z"/>
<path style="fill:#da9e9c; stroke:none;" d="M343 262L344 263L343 262z"/>
<path style="fill:#636363; stroke:none;" d="M351 262L352 263L351 262M239.333 263.667L239.667 264.333L239.333 263.667z"/>
<path style="fill:#da9e9c; stroke:none;" d="M246 263L247 264L246 263z"/>
<path style="fill:#636363; stroke:none;" d="M257 263L255 264L255 265L257 263z"/>
<path style="fill:#da9e9c; stroke:none;" d="M269 263L270 264L269 263z"/>
<path style="fill:#636363; stroke:none;" d="M295 263L296 264L295 263M301 263L302 264L301 263M352.333 263.667L352.667 264.333L352.333 263.667z"/>
<path style="fill:#da9e9c; stroke:none;" d="M572 263L572 266L573 266L572 263M251 264L252 265L251 264z"/>
<path style="fill:#636363; stroke:none;" d="M269 264L269 272L270 272L269 264M282.333 264.667L282.667 265.333L282.333 264.667M288 264L288 267L289 267L288 264z"/>
<path style="fill:#da9e9c; stroke:none;" d="M295 264L295 268L296 268L295 264M302.333 264.667L302.667 265.333L302.333 264.667M345 264L346 265L345 264M597 264L597 267L598 267L597 264M7.33333 265.667L7.66667 266.333L7.33333 265.667M37 265L38 266L37 265M238 265L238 268L239 268L238 265M245 265L245 272L246 272L245 265M252 265L252 266L257 266L252 265M353.333 265.667L353.667 266.333L353.333 265.667M281 266L281 271L282 271L281 266z"/>
<path style="fill:#636363; stroke:none;" d="M296 266L296 270L297 270L296 266M302 266L302 271L303 271L302 266z"/>
<path style="fill:#da9e9c; stroke:none;" d="M346 266L346 271L347 271L346 266M571 266L571 269L572 269L571 266M8 267L8 270L9 270L8 267M38.3333 267.667L38.6667 268.333L38.3333 267.667M288 267L288 271L289 271L288 267z"/>
<path style="fill:#636363; stroke:none;" d="M353 267L353 270L354 270L353 267M238.333 268.667L238.667 269.333L238.333 268.667M263 268L264 269L263 268z"/>
<path style="fill:#da9e9c; stroke:none;" d="M596 268L596 271L597 271L596 268M39.3333 269.667L39.6667 270.333L39.3333 269.667M295 269L295 273L296 273L295 269M570 269L570 272L571 272L570 269M9 270L9 273L10 273L9 270M238.333 270.667L238.667 271.333L238.333 270.667M353.333 270.667L353.667 271.333L353.333 270.667M252 273L255 272L252 273z"/>
<path style="fill:#636363; stroke:none;" d="M282.333 271.667L282.667 272.333L282.333 271.667M288.333 271.667L288.667 272.333L288.333 271.667z"/>
<path style="fill:#da9e9c; stroke:none;" d="M302.333 271.667L302.667 272.333L302.333 271.667z"/>
<path style="fill:#636363; stroke:none;" d="M346 271L345 274L346 271M239.333 272.667L239.667 273.333L239.333 272.667M245 272L251 276L251 275L245 272M253 272L254 273L253 272M257.333 272.667L257.667 273.333L257.333 272.667z"/>
<path style="fill:#da9e9c; stroke:none;" d="M269 272L270 273L269 272M345 272L346 273L345 272z"/>
<path style="fill:#636363; stroke:none;" d="M352 272L351 275L352 272z"/>
<path style="fill:#da9e9c; stroke:none;" d="M569 272L569 275L570 275L569 272M595 272L595 275L596 275L595 272M10.3333 273.667L10.6667 274.333L10.3333 273.667M41 273L42 274L41 273M246 273L247 274L246 273z"/>
<path style="fill:#636363; stroke:none;" d="M252 273L253 274L252 273M269.333 273.667L269.667 274.333L269.333 273.667z"/>
<path style="fill:#da9e9c; stroke:none;" d="M282 273L284 276L282 273M289 273L291 275L289 273z"/>
<path style="fill:#636363; stroke:none;" d="M295 273L296 274L295 273M301 273L302 274L301 273z"/>
<path style="fill:#da9e9c; stroke:none;" d="M315 273L317 275L315 273z"/>
<path style="fill:#636363; stroke:none;" d="M321 273L322 274L321 273z"/>
<path style="fill:#da9e9c; stroke:none;" d="M239 274L240 275L239 274M247 274L248 275L247 274M251 274L252 275L251 274M257 274L258 275L257 274M270 274L270 275L279 275L270 274z"/>
<path style="fill:#636363; stroke:none;" d="M283 274L284 275L283 274M289 274L290 275L289 274M294 274L295 275L294 274z"/>
<path style="fill:#da9e9c; stroke:none;" d="M301 274L302 275L301 274M308.333 274.667L308.667 275.333L308.333 274.667z"/>
<path style="fill:#636363; stroke:none;" d="M315 274L316 275L315 274z"/>
<path style="fill:#da9e9c; stroke:none;" d="M319 274L320 275L319 274z"/>
<path style="fill:#636363; stroke:none;" d="M320 274L321 275L320 274z"/>
<path style="fill:#da9e9c; stroke:none;" d="M326 274L327 275L326 274M343 274L344 275L343 274z"/>
<path style="fill:#636363; stroke:none;" d="M344 274L345 275L344 274z"/>
<path style="fill:#da9e9c; stroke:none;" d="M352 274L353 275L352 274M11.3333 275.667L11.6667 276.333L11.3333 275.667M42 275L43 276L42 275z"/>
<path style="fill:#636363; stroke:none;" d="M240 275C243.367 279.248 246.744 279.952 252 280L252 279L240 275M256 275L257 276L256 275M278 275L278 279L263 278L263 279C266.905 280.154 280.392 282.298 278 275M290 275L290 276L294 276L290 275M300 275L301 276L300 275M309.333 275.667L309.667 276.333L309.333 275.667M317 275L317 276L320 276L317 275M325 275L326 276L325 275z"/>
<path style="fill:#da9e9c; stroke:none;" d="M351 275L352 276L351 275M568.333 275.667L568.667 276.333L568.333 275.667M594 275L594 278L595 278L594 275M43.3333 276.667L43.6667 277.333L43.3333 276.667M240 276L241 277L240 276M256 276L257 277L256 276z"/>
<path style="fill:#636363; stroke:none;" d="M284 276L285 277L284 276z"/>
<path style="fill:#da9e9c; stroke:none;" d="M300 276L301 277L300 276M325 276L326 277L325 276z"/>
<path style="fill:#636363; stroke:none;" d="M350 276L351 277L350 276z"/>
<path style="fill:#da9e9c; stroke:none;" d="M12.3333 277.667L12.6667 278.333L12.3333 277.667M241 277L242 278L241 277z"/>
<path style="fill:#636363; stroke:none;" d="M254 277L253 279L254 277z"/>
<path style="fill:#da9e9c; stroke:none;" d="M255 277L256 278L255 277z"/>
<path style="fill:#636363; stroke:none;" d="M285 277L286 278L285 277M298 277L289 279L289 280L299 278L298 277z"/>
<path style="fill:#da9e9c; stroke:none;" d="M299 277L300 278L299 277z"/>
<path style="fill:#636363; stroke:none;" d="M310 277L311 278L310 277M324 277L325 278L324 277M348 277L345 278L345 279L349 278L348 277z"/>
<path style="fill:#da9e9c; stroke:none;" d="M349 277L350 278L349 277M567.333 277.667L567.667 278.333L567.333 277.667M44 278L45 279L44 278M242 278L243 279L242 278M254 278L255 279L254 278M286 278L289 280L289 279L286 278z"/>
<path style="fill:#636363; stroke:none;" d="M287 278L288 279L287 278z"/>
<path style="fill:#da9e9c; stroke:none;" d="M298 278L299 279L298 278M311 278L312 279L311 278z"/>
<path style="fill:#636363; stroke:none;" d="M312 278L313 279L312 278M322 278L323 279L322 278z"/>
<path style="fill:#da9e9c; stroke:none;" d="M323 278L324 279L323 278M348 278L349 279L348 278M593 278L593 281L594 281L593 278M244 279L245 280L244 279M252 279L253 280L252 279M263 279L264 280L263 279M278 279L279 280L278 279M296 279L297 280L296 279M313 279L314 280L313 279z"/>
<path style="fill:#636363; stroke:none;" d="M314 279L314 280L321 280L314 279z"/>
<path style="fill:#da9e9c; stroke:none;" d="M321 279L322 280L321 279M333 279L334 280L333 279M343 279L343 280L346 280L343 279M566.333 279.667L566.667 280.333L566.333 279.667M13.3333 280.667L13.6667 281.333L13.3333 280.667M45 280L46 281L45 280M292 280L293 281L292 280M316.667 280.333L317.333 280.667L316.667 280.333M46.3333 281.667L46.6667 282.333L46.3333 281.667M565.333 281.667L565.667 282.333L565.333 281.667M592 281L592 284L593 284L592 281M14.3333 282.667L14.6667 283.333L14.3333 282.667M47 283L48 284L47 283M564.333 283.667L564.667 284.333L564.333 283.667M15 284L16 285L15 284M48 284L50 287L48 284M591.333 284.667L591.667 285.333L591.333 284.667M563.333 285.667L563.667 286.333L563.333 285.667M16 286L17 287L16 286M17.3333 287.667L17.6667 288.333L17.3333 287.667M50 287L51 288L50 287M562 287L563 288L562 287M590.333 287.667L590.667 288.333L590.333 287.667M51 288L52 289L51 288M561.333 288.667L561.667 289.333L561.333 288.667M18.3333 289.667L18.6667 290.333L18.3333 289.667M52.3333 289.667L52.6667 290.333L52.3333 289.667M589.333 289.667L589.667 290.333L589.333 289.667M560 290L561 291L560 290M19 291L20 292L19 291M53 291L54 292L53 291M588.333 291.667L588.667 292.333L588.333 291.667M54 292L55 293L54 292M559 292L560 293L559 292M20 293L21 294L20 293M55 293L56 294L55 293M558 293L559 294L558 293M587.333 293.667L587.667 294.333L587.333 293.667M21 294L22 295L21 294M56 294L57 295L56 294M557 294L558 295L557 294M57 295L58 296L57 295M586.333 295.667L586.667 296.333L586.333 295.667M22 296L23 297L22 296M58 296L59 297L58 296M556 296L557 297L556 296M23 297L24 298L23 297M59 297L60 298L59 297M555 297L556 298L555 297M585.333 297.667L585.667 298.333L585.333 297.667M60 298L61 299L60 298M554 298L555 299L554 298M24 299L25 300L24 299M61 299L62 300L61 299M553 299L554 300L553 299M584.333 299.667L584.667 300.333L584.333 299.667M25 300L26 301L25 300M62 300L63 301L62 300M552 300L553 301L552 300M26.3333 301.667L26.6667 302.333L26.3333 301.667M63 301L64 302L63 301M551 301L550 304L551 301M583 301L584 302L583 301M64 302L65 303L64 302M582.333 302.667L582.667 303.333L582.333 302.667M27 303L28 304L27 303M65 303L66 304L65 303M28 304L31 308L28 304M66 304L69 306L66 304M549 304L550 305L549 304M581 304L582 305L581 304M547.667 305.333L548.333 305.667L547.667 305.333M69 306L70 307L69 306M546 306L547 307L546 306M580 306L581 307L580 306M70 307L71 308L70 307M545 307L546 308L545 307M579 307L580 308L579 307M31 308L32 309L31 308M71 308L72 309L71 308M544 308L545 309L544 308M32 309L33 310L32 309M72.6667 309.333L73.3333 309.667L72.6667 309.333M543 309L544 310L543 309M578 309L579 310L578 309M33 310L34 311L33 310M74 310L75 311L74 310M542 310L543 311L542 310M577 310L578 311L577 310M34 311L35 312L34 311M75.6667 311.333L76.3333 311.667L75.6667 311.333M541 311L542 312L541 311M35 312L36 313L35 312M77 312L78 313L77 312M539 312L540 313L539 312M36 313L37 314L36 313M78.6667 313.333L79.3333 313.667L78.6667 313.333M538 313L539 314L538 313M575 313L576 314L575 313M37.3333 314.667L37.6667 315.333L37.3333 314.667M80.6667 314.333L81.3333 314.667L80.6667 314.333M536.667 314.333L537.333 314.667L536.667 314.333M574 314L575 315L574 314M82 315L83 316L82 315M535 315L536 316L535 315M573 315L574 316L573 315M38 316L41 318L38 316M83.6667 316.333L84.3333 316.667L83.6667 316.333M533.667 316.333L534.333 316.667L533.667 316.333M572 316L570 320L572 316M85.6667 317.333L86.3333 317.667L85.6667 317.333M532 317L533 318L532 317M41 318L41 320L43 320L41 318M87.6667 318.333L88.3333 318.667L87.6667 318.333M530.667 318.333L531.333 318.667L530.667 318.333M89.6667 319.333L90.3333 319.667L89.6667 319.333M528.667 319.333L529.333 319.667L528.667 319.333M43 320L44 321L43 320M91.6667 320.333L92.3333 320.667L91.6667 320.333M526.667 320.333L527.333 320.667L526.667 320.333M569 320L570 321L569 320M44 321L45 322L44 321M93 321L93 322L96 322L93 321M524.667 321.333L525.333 321.667L524.667 321.333M568 321L569 322L568 321M45 322L46 323L45 322M96.6667 322.333L97.3333 322.667L96.6667 322.333M522.667 322.333L523.333 322.667L522.667 322.333M567 322L568 323L567 322M46 323L47 324L46 323M98 323L98 324L101 324L98 323M520.667 323.333L521.333 323.667L520.667 323.333M566 323L567 324L566 323M47.6667 324.333L48.3333 324.667L47.6667 324.333M101 324L101 325L104 325L101 324M517.667 324.333L518.333 324.667L517.667 324.333M565 324L566 325L565 324M49 325L50 326L49 325M104 325L104 326L107 326L104 325M514.667 325.333L515.333 325.667L514.667 325.333M564 325L565 326L564 325M50 326L51 327L50 326M108 326L108 327L111 327L108 326M511 326L511 327L514 327L511 326M561 328L564 326L561 328M51 327L52 328L51 327M112 327L112 328L115 328L112 327M507 327L507 328L510 328L507 327M53 328L54 329L53 328M117 328L117 329L120 329L117 328M502 328L502 329L506 329L502 328M560 328L561 329L560 328M54 329L55 330L54 329M123 329L123 330L128 330L123 329M494 329L494 330L500 330L494 329M559 329L560 330L559 329M55.6667 330.333L56.3333 330.667L55.6667 330.333M558 330L559 331L558 330M57 331L58 332L57 331M556.667 331.333L557.333 331.667L556.667 331.333M58.6667 332.333L59.3333 332.667L58.6667 332.333M555 332L556 333L555 332M60 333L61 334L60 333M554 333L555 334L554 333M62 334L63 335L62 334M552.667 334.333L553.333 334.667L552.667 334.333M63 335L64 336L63 335M551 335L552 336L551 335M65.6667 336.333L66.3333 336.667L65.6667 336.333M549.667 336.333L550.333 336.667L549.667 336.333M67.6667 337.333L68.3333 337.667L67.6667 337.333M547.667 337.333L548.333 337.667L547.667 337.333M69.6667 338.333L70.3333 338.667L69.6667 338.333M546 338L547 339L546 338M71.6667 339.333L72.3333 339.667L71.6667 339.333M544.667 339.333L545.333 339.667L544.667 339.333M73.6667 340.333L74.3333 340.667L73.6667 340.333M542.667 340.333L543.333 340.667L542.667 340.333M75 341L75 342L80 343L80 342L75 341M540.667 341.333L541.333 341.667L540.667 341.333M538.667 342.333L539.333 342.667L538.667 342.333M80 343L80 344L83 344L80 343M536 343L537 344L536 343M83.6667 344.333L84.3333 344.667L83.6667 344.333M533.667 344.333L534.333 344.667L533.667 344.333M86.6667 345.333L87.3333 345.667L86.6667 345.333M530.667 345.333L531.333 345.667L530.667 345.333M90 346L90 347L93 347L90 346M526 346L526 347L529 347L526 346M93 347L93 348L96 348L93 347M523 347L523 348L526 348L523 347M98 348L98 349L102 349L98 348M518 348L518 349L521 349L518 348M105 349L105 350L109 350L105 349M512 349L512 350L516 350L512 349z"/>
</svg>
